<svg xmlns="http://www.w3.org/2000/svg" viewBox="0 0 800 600" width="800" height="600" role="img" aria-label="Predicting marketing campaign response">
  <defs>
    <linearGradient id="bg" x1="0" y1="0" x2="0" y2="1">
      <stop offset="0" stop-color="#252a36"/>
      <stop offset="1" stop-color="#121419"/>
    </linearGradient>
    <linearGradient id="gb" x1="0" y1="0" x2="1" y2="0">
      <stop offset="0" stop-color="#17A589"/>
      <stop offset="1" stop-color="#2E86C1"/>
    </linearGradient>
    <linearGradient id="env" x1="0" y1="0" x2="0" y2="1">
      <stop offset="0" stop-color="#1ec8a5"/>
      <stop offset="1" stop-color="#148f9e"/>
    </linearGradient>
    <radialGradient id="glowT" cx="0.5" cy="0.5" r="0.5">
      <stop offset="0" stop-color="#17A589" stop-opacity="0.26"/>
      <stop offset="1" stop-color="#17A589" stop-opacity="0"/>
    </radialGradient>
    <radialGradient id="glowB" cx="0.5" cy="0.5" r="0.5">
      <stop offset="0" stop-color="#2E86C1" stop-opacity="0.26"/>
      <stop offset="1" stop-color="#2E86C1" stop-opacity="0"/>
    </radialGradient>

    <g id="mail">
      <rect x="-21" y="-14" width="42" height="28" rx="3.5" fill="#eef2f7"/>
      <path d="M -21 -14 L 0 3 L 21 -14" fill="none" stroke="#9aa4b0" stroke-width="2.8" stroke-linejoin="round"/>
    </g>
  </defs>

  <rect width="800" height="600" fill="url(#bg)"/>

  <!-- faint grid -->
  <g stroke="#3E4250" stroke-width="1" opacity="0.26">
    <line x1="0" y1="130" x2="800" y2="130"/>
    <line x1="0" y1="260" x2="800" y2="260"/>
    <line x1="0" y1="390" x2="800" y2="390"/>
    <line x1="160" y1="0" x2="160" y2="600"/>
    <line x1="320" y1="0" x2="320" y2="600"/>
    <line x1="480" y1="0" x2="480" y2="600"/>
    <line x1="640" y1="0" x2="640" y2="600"/>
  </g>

  <!-- atmosphere -->
  <ellipse cx="180" cy="470" rx="300" ry="230" fill="url(#glowT)"/>
  <ellipse cx="600" cy="190" rx="320" ry="250" fill="url(#glowB)"/>

  <!-- the campaign: big open envelope, bottom-left, mid-burst -->
  <g transform="translate(190,468) rotate(-8)">
    <polygon points="-105,-52 0,-138 105,-52" fill="#181d29" stroke="url(#gb)" stroke-width="4" stroke-linejoin="round"/>
    <rect x="-60" y="-116" width="120" height="58" rx="6" fill="#eef2f7"/>
    <line x1="-40" y1="-96" x2="40" y2="-96" stroke="#9aa4b0" stroke-width="6" stroke-linecap="round"/>
    <line x1="-40" y1="-78" x2="14" y2="-78" stroke="#c3cad2" stroke-width="6" stroke-linecap="round"/>
    <rect x="-105" y="-52" width="210" height="106" rx="10" fill="url(#env)"/>
    <polygon points="-105,-52 0,30 105,-52" fill="#0b2f33" opacity="0.28"/>
    <polygon points="-105,-52 0,30 105,-52" fill="none" stroke="#0f1216" stroke-width="4" stroke-linejoin="round" opacity="0.5"/>
    <!-- burst lines -->
    <g stroke="#1ABC9C" stroke-width="3.5" stroke-linecap="round" opacity="0.8">
      <line x1="-128" y1="-70" x2="-148" y2="-84"/>
      <line x1="-118" y1="-16" x2="-142" y2="-12"/>
      <line x1="124" y1="-72" x2="146" y2="-86"/>
    </g>
  </g>

  <!-- flight path: the model's decision curve -->
  <path d="M 250 350 C 330 250 420 200 500 180 C 560 166 600 160 636 158" fill="none" stroke="url(#gb)" stroke-width="3" stroke-dasharray="7 8" opacity="0.75"/>

  <!-- letters in flight -->
  <use href="#mail" transform="translate(300,304) rotate(-24) scale(0.92)"/>
  <use href="#mail" transform="translate(392,232) rotate(-13)"/>
  <use href="#mail" transform="translate(496,186) rotate(-4) scale(1.1)"/>

  <!-- responders ride the path home -->
  <g fill="#1ABC9C">
    <circle cx="350" cy="264" r="8"/>
    <circle cx="448" cy="204" r="8"/>
    <circle cx="546" cy="172" r="8"/>
  </g>
  <!-- non-responders drop out of the flight -->
  <g fill="none" stroke="#8b95a3" stroke-width="3">
    <circle cx="360" cy="356" r="8" opacity="0.9"/>
    <circle cx="428" cy="416" r="8" opacity="0.7"/>
    <circle cx="490" cy="470" r="8" opacity="0.5"/>
  </g>

  <!-- the target: hero of the piece -->
  <g transform="translate(636,208)">
    <circle r="118" fill="#101318" stroke="#ffffff" stroke-width="7"/>
    <circle r="86" fill="none" stroke="url(#gb)" stroke-width="6"/>
    <circle r="54" fill="none" stroke="#ffffff" stroke-width="4.5" opacity="0.85"/>
    <circle r="24" fill="#1ABC9C"/>
    <!-- impact burst -->
    <g stroke="#25dcb8" stroke-width="3.5" stroke-linecap="round" opacity="0.9">
      <line x1="-44" y1="-38" x2="-60" y2="-52"/>
      <line x1="44" y1="-38" x2="60" y2="-52"/>
      <line x1="-46" y1="34" x2="-62" y2="46"/>
      <line x1="48" y1="30" x2="64" y2="42"/>
    </g>
  </g>

</svg>
