<svg xmlns="http://www.w3.org/2000/svg" viewBox="0 0 800 600" width="800" height="600" role="img" aria-label="Predicting marketing campaign response">
  <defs>
    <linearGradient id="bg" x1="0" y1="0" x2="0" y2="1">
      <stop offset="0" stop-color="#252a36"/>
      <stop offset="1" stop-color="#121419"/>
    </linearGradient>
    <linearGradient id="gb" x1="0" y1="0" x2="1" y2="0">
      <stop offset="0" stop-color="#17A589"/>
      <stop offset="1" stop-color="#2E86C1"/>
    </linearGradient>
    <linearGradient id="env" x1="0" y1="0" x2="0" y2="1">
      <stop offset="0" stop-color="#1ec8a5"/>
      <stop offset="1" stop-color="#148f9e"/>
    </linearGradient>
    <radialGradient id="glowT" cx="0.5" cy="0.5" r="0.5">
      <stop offset="0" stop-color="#17A589" stop-opacity="0.26"/>
      <stop offset="1" stop-color="#17A589" stop-opacity="0"/>
    </radialGradient>
    <radialGradient id="glowB" cx="0.5" cy="0.5" r="0.5">
      <stop offset="0" stop-color="#2E86C1" stop-opacity="0.26"/>
      <stop offset="1" stop-color="#2E86C1" stop-opacity="0"/>
    </radialGradient>

    <g id="mail">
      <rect x="-21" y="-14" width="42" height="28" rx="3.5" fill="#eef2f7"/>
      <path d="M -21 -14 L 0 3 L 21 -14" fill="none" stroke="#9aa4b0" stroke-width="2.8" stroke-linejoin="round"/>
    </g>
  </defs>

  <rect width="800" height="600" fill="url(#bg)"/>

  <!-- faint grid: shared backdrop style -->
  <g stroke="#eef2f7" stroke-opacity="0.035" stroke-width="1">
    <path d="M0 80H800M0 160H800M0 240H800M0 320H800M0 400H800M0 480H800"/>
    <path d="M80 0V600M160 0V600M240 0V600M320 0V600M400 0V600M480 0V600M560 0V600M640 0V600M720 0V600"/>
  </g>

  <!-- atmosphere -->
  <ellipse cx="180" cy="470" rx="300" ry="230" fill="url(#glowT)"/>
  <ellipse cx="600" cy="190" rx="320" ry="250" fill="url(#glowB)"/>

  <!-- the campaign: big open envelope, bottom-left, mid-burst -->
  <g transform="translate(190,468) rotate(-8)">
    <polygon points="-105,-52 0,-138 105,-52" fill="#181d29" stroke="url(#gb)" stroke-width="4" stroke-linejoin="round"/>
    <rect x="-60" y="-116" width="120" height="58" rx="6" fill="#eef2f7"/>
    <line x1="-40" y1="-96" x2="40" y2="-96" stroke="#9aa4b0" stroke-width="6" stroke-linecap="round"/>
    <line x1="-40" y1="-78" x2="14" y2="-78" stroke="#c3cad2" stroke-width="6" stroke-linecap="round"/>
    <rect x="-105" y="-52" width="210" height="106" rx="10" fill="url(#env)"/>
    <polygon points="-105,-52 0,30 105,-52" fill="#0b2f33" opacity="0.28"/>
    <polygon points="-105,-52 0,30 105,-52" fill="none" stroke="#0f1216" stroke-width="4" stroke-linejoin="round" opacity="0.5"/>
  </g>

  <!-- the target: proper concentric board, semi-transparent so the flight reads over it -->
  <g transform="translate(636,208)" opacity="0.55">
    <circle r="118" fill="#eef2f7"/>
    <circle r="92" fill="url(#gb)"/>
    <circle r="64" fill="#eef2f7"/>
    <circle r="36" fill="url(#gb)"/>
    <circle r="118" fill="none" stroke="#0f1216" stroke-width="3" opacity="0.6"/>
  </g>

  <!-- flight path: the model's decision curve, landing on the board -->
  <path d="M 250 350 C 330 250 420 200 500 180 C 560 166 606 170 630 198" fill="none" stroke="url(#gb)" stroke-width="3" stroke-dasharray="7 8" opacity="0.75"/>

  <!-- letters in flight; the fourth lands on the bull -->
  <use href="#mail" transform="translate(300,304) rotate(-24) scale(0.92)"/>
  <use href="#mail" transform="translate(392,232) rotate(-13)"/>
  <use href="#mail" transform="translate(496,186) rotate(-4) scale(1.1)"/>
  <use href="#mail" transform="translate(636,208) scale(1.1)"/>

</svg>
