<svg xmlns="http://www.w3.org/2000/svg" viewBox="0 0 800 600" width="800" height="600" role="img" aria-label="Detecting undervalued homes in London">
  <defs>
    <linearGradient id="bg" x1="0" y1="0" x2="0" y2="1">
      <stop offset="0" stop-color="#252a36"/>
      <stop offset="1" stop-color="#121419"/>
    </linearGradient>
    <linearGradient id="gb" x1="0" y1="0" x2="1" y2="0">
      <stop offset="0" stop-color="#17A589"/>
      <stop offset="1" stop-color="#2E86C1"/>
    </linearGradient>
    <linearGradient id="house" x1="0" y1="0" x2="0" y2="1">
      <stop offset="0" stop-color="#1ec8a5"/>
      <stop offset="1" stop-color="#148f9e"/>
    </linearGradient>
    <radialGradient id="glowT" cx="0.5" cy="0.5" r="0.5">
      <stop offset="0" stop-color="#17A589" stop-opacity="0.30"/>
      <stop offset="1" stop-color="#17A589" stop-opacity="0"/>
    </radialGradient>
    <radialGradient id="glowB" cx="0.5" cy="0.5" r="0.5">
      <stop offset="0" stop-color="#2E86C1" stop-opacity="0.20"/>
      <stop offset="1" stop-color="#2E86C1" stop-opacity="0"/>
    </radialGradient>
  </defs>

  <rect width="800" height="600" fill="url(#bg)"/>

  <!-- faint grid -->
  <g stroke="#3E4250" stroke-width="1" opacity="0.26">
    <line x1="0" y1="130" x2="800" y2="130"/>
    <line x1="0" y1="260" x2="800" y2="260"/>
    <line x1="0" y1="390" x2="800" y2="390"/>
    <line x1="160" y1="0" x2="160" y2="600"/>
    <line x1="320" y1="0" x2="320" y2="600"/>
    <line x1="480" y1="0" x2="480" y2="600"/>
    <line x1="640" y1="0" x2="640" y2="600"/>
  </g>

  <!-- atmosphere -->
  <ellipse cx="300" cy="420" rx="340" ry="240" fill="url(#glowT)"/>
  <ellipse cx="640" cy="140" rx="280" ry="200" fill="url(#glowB)"/>

  <!-- distant London skyline -->
  <g fill="#1a2030" opacity="0.85">
    <rect x="0" y="352" width="800" height="60"/>
    <rect x="34" y="308" width="20" height="48"/>
    <polygon points="34,308 44,284 54,308"/>
    <rect x="96" y="330" width="40" height="26"/>
    <path d="M 172 354 C 167 310 174 282 188 274 C 202 282 209 310 204 354 Z"/>
    <rect x="238" y="322" width="34" height="34"/>
    <polygon points="304,354 330,246 356,354"/>
    <rect x="396" y="332" width="42" height="24"/>
    <rect x="586" y="318" width="30" height="38"/>
    <rect x="700" y="332" width="44" height="24"/>
    <rect x="756" y="316" width="24" height="40"/>
  </g>

  <!-- foreground street: a terrace of homes across the full width -->
  <g>
    <rect x="0" y="548" width="800" height="52" fill="#0e1219"/>
    <!-- terraced ink houses (front + side + gable) -->
    <g fill="#232a3a">
      <rect x="18" y="452" width="88" height="96"/>
      <rect x="130" y="470" width="80" height="78"/>
      <rect x="418" y="462" width="86" height="86"/>
      <rect x="528" y="446" width="92" height="102"/>
      <rect x="648" y="470" width="84" height="78"/>
    </g>
    <g fill="#2b3448">
      <polygon points="18,452 62,414 106,452"/>
      <polygon points="130,470 170,436 210,470"/>
      <polygon points="418,462 461,426 504,462"/>
      <polygon points="528,446 574,406 620,446"/>
      <polygon points="648,470 690,436 732,470"/>
    </g>
    <!-- dim windows -->
    <g fill="#7fb9ad" opacity="0.45">
      <rect x="36" y="472" width="14" height="13" rx="1.5"/><rect x="74" y="472" width="14" height="13" rx="1.5"/>
      <rect x="148" y="488" width="13" height="12" rx="1.5"/><rect x="182" y="488" width="13" height="12" rx="1.5"/>
      <rect x="436" y="480" width="13" height="12" rx="1.5"/><rect x="470" y="480" width="13" height="12" rx="1.5"/>
      <rect x="548" y="466" width="14" height="13" rx="1.5"/><rect x="586" y="466" width="14" height="13" rx="1.5"/>
      <rect x="666" y="488" width="13" height="12" rx="1.5"/><rect x="700" y="488" width="13" height="12" rx="1.5"/>
    </g>
    <!-- doors -->
    <g fill="#151a26">
      <rect x="52" y="512" width="20" height="36" rx="2"/>
      <rect x="160" y="516" width="18" height="32" rx="2"/>
      <rect x="450" y="514" width="18" height="34" rx="2"/>
      <rect x="562" y="510" width="20" height="38" rx="2"/>
      <rect x="680" y="516" width="18" height="32" rx="2"/>
    </g>

    <!-- THE undervalued home: glowing teal, mid-terrace -->
    <ellipse cx="316" cy="500" rx="120" ry="90" fill="url(#glowT)"/>
    <rect x="262" y="438" width="108" height="110" fill="url(#house)"/>
    <polygon points="262,438 316,392 370,438" fill="#25dcb8"/>
    <rect x="282" y="458" width="18" height="16" rx="2" fill="#eafcf7"/>
    <rect x="332" y="458" width="18" height="16" rx="2" fill="#eafcf7"/>
    <rect x="302" y="500" width="28" height="48" rx="2.5" fill="#0b2f33"/>
  </g>

  <!-- the market in the sky: scatter of sales and the fair-price line -->
  <g fill="#e7e7e7">
    <circle cx="88" cy="252" r="6" opacity="0.9"/>
    <circle cx="168" cy="232" r="6" opacity="0.8"/>
    <circle cx="252" cy="196" r="6" opacity="0.9"/>
    <circle cx="338" cy="192" r="6" opacity="0.75"/>
    <circle cx="422" cy="152" r="6" opacity="0.9"/>
    <circle cx="508" cy="146" r="6" opacity="0.8"/>
    <circle cx="592" cy="106" r="6" opacity="0.9"/>
    <circle cx="676" cy="96" r="6" opacity="0.8"/>
  </g>
  <path d="M 52 274 C 260 230 520 150 758 72" fill="none" stroke="url(#gb)" stroke-width="5" stroke-linecap="round"/>

  <!-- this sale sits well below the fair-price line: undervalued -->
  <circle cx="316" cy="268" r="8" fill="#1ABC9C"/>
  <line x1="316" y1="278" x2="316" y2="386" stroke="#1ABC9C" stroke-width="2.5" stroke-dasharray="6 6"/>

  <!-- magnifier hero: the glass found the house -->
  <g transform="translate(316,458)">
    <circle r="78" fill="#17A589" opacity="0.08"/>
    <circle r="78" fill="none" stroke="#ffffff" stroke-width="8"/>
    <line x1="56" y1="-56" x2="116" y2="-116" stroke="#2E86C1" stroke-width="11" stroke-linecap="round"/>
  </g>
</svg>
